<svg width="24" height="24" viewBox="0 0 24 24" fill="none" xmlns="http://www.w3.org/2000/svg">
<g clip-path="url(#clip0_1_11)">
<path d="M23.2373 0.75C23.2437 0.768828 23.25 0.794769 23.25 0.828125V23.1719C23.25 23.2052 23.2437 23.2312 23.2373 23.25H0.762695C0.756338 23.2312 0.75 23.2052 0.75 23.1719V0.828125C0.75 0.794769 0.756338 0.768828 0.762695 0.75H23.2373Z" stroke="#808080" stroke-width="1.5"/>
<path d="M10.1504 5.84961V6.57813H7.68068V8.1377H9.6797V8.86622H7.68068V10.4199H10.1504V11.1504H6.90919V5.84961H10.1504ZM4.65529 5.84961V5.85059C4.84541 5.84967 5.03347 5.88618 5.209 5.95704L5.20997 5.95606C5.33816 6.00728 5.45805 6.0768 5.56544 6.16114L5.66896 6.25001V6.25098C5.79938 6.37682 5.90419 6.52534 5.97657 6.68946C6.05304 6.86032 6.09183 7.04512 6.09083 7.23145V9.77149C6.09212 9.95725 6.05339 10.1415 5.97657 10.3115L5.9756 10.3106C5.90289 10.4743 5.79931 10.6234 5.66896 10.749V10.75C5.53483 10.8778 5.3754 10.9784 5.20118 11.0469C5.02719 11.1153 4.84107 11.149 4.65333 11.1484V11.1494H2.84962V5.84961H4.65529ZM3.62013 10.4229H4.6338C4.72626 10.4234 4.81771 10.4057 4.90236 10.3711L5.01954 10.3096C5.05622 10.2859 5.0906 10.2592 5.12208 10.2295L5.20607 10.1328C5.23049 10.0983 5.25148 10.0617 5.26857 10.0234V10.0225C5.30392 9.94389 5.32196 9.8595 5.3213 9.77442V7.23047C5.3219 7.14489 5.30378 7.05964 5.26857 6.98047L5.20509 6.86915C5.13108 6.76502 5.02674 6.68128 4.90236 6.62989C4.81772 6.59526 4.72624 6.57756 4.6338 6.57813H3.62013V10.4229Z" fill="#808080" stroke="#808080" stroke-width="0.3"/>
<path d="M3.58986 13.9199V17.8066C3.58902 17.8902 3.60549 17.9731 3.63868 18.0498C3.65489 18.0872 3.67536 18.1227 3.69825 18.1563L3.77638 18.251C3.80508 18.2799 3.83647 18.3064 3.87013 18.3291L3.97755 18.3867C4.05452 18.4197 4.13786 18.4362 4.22169 18.4356H4.53126C4.61515 18.4362 4.69839 18.4197 4.7754 18.3867H4.77638C4.85144 18.355 4.91933 18.3086 4.97657 18.251C5.03338 18.1925 5.0789 18.1244 5.11134 18.0498L5.14845 17.9307C5.15662 17.8899 5.16056 17.8484 5.16017 17.8066V13.9199H5.9004V14.0693L5.89943 17.8047C5.90037 17.9397 5.88066 18.0737 5.84083 18.2022L5.79396 18.3291C5.67381 18.6114 5.46155 18.8433 5.19337 18.9883L5.07521 19.0449C4.9095 19.1154 4.73096 19.1505 4.55079 19.1494V19.1504H4.20314C4.02533 19.1508 3.849 19.1163 3.68458 19.0488C3.52005 18.9813 3.37013 18.8811 3.24415 18.7559C3.12174 18.6336 3.02389 18.4891 2.95607 18.3301L2.90919 18.2031C2.86908 18.0744 2.84864 17.94 2.84962 17.8047V13.9199H3.58986ZM8.34474 13.9199V13.9209C8.52227 13.9201 8.69806 13.9534 8.86232 14.0205C9.02689 14.0878 9.17683 14.1863 9.30275 14.3115C9.42636 14.4347 9.52555 14.5808 9.59376 14.7412C9.66418 14.9076 9.6992 15.087 9.69825 15.2676L9.69728 15.8701C9.69803 16.0048 9.67742 16.1384 9.63771 16.2666L9.59181 16.3936C9.48818 16.6377 9.31384 16.8453 9.09181 16.9912C8.92515 17.1007 8.73702 17.1721 8.54103 17.2002L8.34376 17.2139H7.38771V19.0811H6.64845V13.9199H8.34474ZM10.9053 13.9199V18.3662H12.7754V18.5166L12.7744 18.9316V19.0811H10.1651V13.9199H10.9053ZM7.38771 16.4961H8.32423C8.4089 16.4968 8.49323 16.4798 8.5713 16.4473C8.64604 16.4148 8.7144 16.3694 8.77247 16.3125L8.84962 16.2188C8.87245 16.1853 8.89217 16.1497 8.90822 16.1123C8.94136 16.0355 8.95773 15.9527 8.95704 15.8691V15.2676C8.95761 15.1841 8.94111 15.1013 8.90822 15.0244L8.84962 14.917C8.78076 14.8161 8.68369 14.7356 8.56935 14.6865C8.49202 14.6535 8.40843 14.637 8.32423 14.6377H7.38771V16.4961ZM13.8389 17.8066C13.8381 17.8904 13.8546 17.9737 13.8877 18.0508C13.9204 18.1253 13.9666 18.1933 14.0244 18.251C14.082 18.3085 14.1505 18.3546 14.2256 18.3867H14.2266C14.3041 18.4196 14.3874 18.4371 14.4717 18.4365H14.7793C14.8637 18.4372 14.9479 18.4207 15.0254 18.3877L15.1318 18.3291C15.1651 18.3065 15.1962 18.2806 15.2246 18.252C15.2823 18.1937 15.3289 18.1248 15.3613 18.0498C15.3945 17.9731 15.411 17.8901 15.4102 17.8066V17.3652L15.584 17.3936L16.0225 17.4639L16.1475 17.4844L16.1484 17.6113L16.1504 17.8037C16.1514 17.9393 16.1311 18.0742 16.0908 18.2031L16.044 18.3291C15.993 18.4487 15.9254 18.5602 15.8428 18.6602L15.7559 18.7559C15.6324 18.8786 15.4851 18.975 15.3242 19.042L15.3252 19.043C15.1591 19.1133 14.9803 19.1484 14.7998 19.1475V19.1484H14.4522V19.1475C14.2743 19.1484 14.0981 19.1144 13.9336 19.0469C13.7689 18.9793 13.6189 18.8797 13.4932 18.7539C13.4014 18.6622 13.3231 18.5584 13.2608 18.4453L13.2031 18.3281C13.1322 18.1622 13.0963 17.9831 13.0977 17.8027V15.1943C13.0965 15.0145 13.1325 14.8364 13.2031 14.6709V14.6699C13.272 14.5111 13.3706 14.3666 13.4932 14.2441C13.6189 14.1184 13.7689 14.0188 13.9336 13.9512C14.0981 13.8837 14.2743 13.8497 14.4522 13.8506V13.8496H14.7998V13.8506C14.9803 13.8496 15.1591 13.8848 15.3252 13.9551C15.4857 14.0227 15.632 14.121 15.7549 14.2441H15.7539C15.8765 14.3665 15.9751 14.5108 16.043 14.6699L16.0899 14.7969C16.1298 14.9253 16.1493 15.0594 16.1484 15.1943V15.5186L16.0215 15.5381L15.583 15.6065L15.4102 15.6338V15.1934C15.411 15.1099 15.3945 15.0269 15.3613 14.9502V14.9492C15.3129 14.8371 15.2331 14.7416 15.1328 14.6738L15.0254 14.6162C14.9481 14.5831 14.8645 14.5656 14.7803 14.5664H14.4717C14.3874 14.5657 14.304 14.5832 14.2266 14.6162C14.1514 14.6483 14.0816 14.6929 14.0234 14.75L14.0244 14.751C13.9954 14.7796 13.9692 14.8113 13.9463 14.8447L13.8877 14.9512C13.8546 15.0282 13.8381 15.1116 13.8389 15.1953V17.8066Z" fill="#808080" stroke="#808080" stroke-width="0.3"/>
<path d="M19 11.9004C19.6075 11.9004 20.0996 12.3925 20.0996 13V20C20.0996 20.6075 19.6075 21.0996 19 21.0996H12.6123C12.219 21.0994 11.9007 20.781 11.9004 20.3877V19.8828C11.9004 19.7679 11.9935 19.6748 12.1084 19.6748C12.2232 19.675 12.3164 19.768 12.3164 19.8828V20.2656C12.3164 20.4819 12.4917 20.6572 12.708 20.6572H18.7842C19.281 20.657 19.6835 20.2547 19.6836 19.7578V13.2422C19.6835 12.7453 19.281 12.343 18.7842 12.3428H13.1172C12.6751 12.3428 12.3167 12.7006 12.3164 13.1426V13.9356C12.3164 14.0504 12.2232 14.1434 12.1084 14.1436C11.9935 14.1436 11.9004 14.0505 11.9004 13.9356V13C11.9004 12.3925 12.3925 11.9004 13 11.9004H19Z" fill="#808080" stroke="#808080" stroke-width="0.2"/>
</g>
<rect x="0.5" y="0.5" width="23" height="23" rx="1.5" stroke="#808080"/>
<defs>
<clipPath id="clip0_1_11">
<rect width="24" height="24" rx="2" fill="white"/>
</clipPath>
</defs>
</svg>
