<svg width="24" height="24" viewBox="0 0 24 24" fill="none" xmlns="http://www.w3.org/2000/svg">
<g clip-path="url(#clip0_51_6987)">
<path d="M0.75 0.827961C0.75 0.794772 0.755444 0.768806 0.76176 0.75H23.2382C23.2446 0.768806 23.25 0.794772 23.25 0.827961V23.172C23.25 23.2052 23.2446 23.2312 23.2382 23.25H0.76176C0.755444 23.2312 0.75 23.2052 0.75 23.172V0.827961Z" stroke="#808080" stroke-width="1.5"/>
<path d="M5.66918 10.7491L5.66854 10.7497C5.53441 10.8775 5.37561 10.9784 5.2014 11.0469C5.02728 11.1154 4.84098 11.1502 4.65311 11.1496M5.66918 10.7491L5.15478 6.09564C4.99666 6.03158 4.82654 5.99904 4.65484 6.00002V5.85002H4.65442H3H2.85V6.00002V10.9996V11.1496H3H4.65311M5.66918 10.7491C5.79949 10.6235 5.90395 10.4749 5.97666 10.3112M5.66918 10.7491L5.97666 10.3112M4.65311 11.1496C4.65301 11.1496 4.65291 11.1496 4.65281 11.1496L4.65332 10.9996M4.65311 11.1496H4.65332V10.9996M4.65332 10.9996H3.15L5.83974 10.2499C5.775 10.3959 5.68178 10.5286 5.56507 10.6411C5.4452 10.7553 5.30296 10.8458 5.14651 10.9073C4.99006 10.9688 4.82246 11.0002 4.65332 10.9996ZM5.97666 10.3112C6.05331 10.1414 6.09237 9.95789 6.09117 9.77244M5.97666 10.3112L6.09117 7.23111V7.23151V9.77244M6.09117 9.77244V9.77291H5.94117L6.09117 9.77187C6.09117 9.77206 6.09117 9.77225 6.09117 9.77244ZM5.32124 9.77291H5.32123L5.32124 9.77414C5.32194 9.85933 5.30413 9.94391 5.26873 10.0226L5.26852 10.023C5.23423 10.0999 5.18456 10.1702 5.12191 10.2297C5.05879 10.2892 4.98434 10.3373 4.90222 10.3711C4.81749 10.4058 4.72597 10.4234 4.63343 10.4228H4.63242H3.61993V6.57832H4.63242V6.57833L4.63343 6.57832C4.72594 6.5777 4.81742 6.59533 4.90212 6.62997C5.06808 6.69849 5.19853 6.8243 5.26864 6.97978C5.30401 7.0591 5.32184 7.14427 5.32124 7.23005H5.32124V7.23111V9.77291ZM5.47124 9.77291V7.23111L5.40551 10.0841C5.44973 9.98588 5.47211 9.87989 5.47124 9.77291ZM10 11.15H10.15V11V10.5702V10.4202H10H7.68066V8.86598H9.53007H9.68007V8.71598V8.28768V8.13768H9.53007H7.68066V6.57796H10H10.15V6.42796V6.00002V5.85002H10H7.05883H6.90883V6.00002V11V11.15H7.05883H10Z" fill="#808080" stroke="#808080" stroke-width="0.3"/>
<path d="M2.85005 17.8048C2.84876 17.9852 2.88481 18.1638 2.95595 18.3297C3.02382 18.4889 3.12175 18.6337 3.24437 18.7561L3.2446 18.7563L5.65617 18.2703C5.71901 18.1232 5.75082 17.9649 5.74961 17.805L5.89961 17.8051V17.8045L5.90032 14.0697L5.90035 13.9197H5.75032H5.31048H5.16048V14.0697V17.805H5.16047L5.16048 17.8065C5.16128 17.8901 5.14467 17.973 5.11168 18.0499C5.07914 18.1247 5.03324 18.1931 4.97619 18.2517C4.91899 18.3092 4.85102 18.355 4.77608 18.3866L4.77536 18.3869C4.69835 18.4199 4.61527 18.4366 4.53138 18.436V18.436H4.53027L4.22295 18.436L4.22184 18.436C4.13795 18.4366 4.05487 18.4199 3.97785 18.3869L3.97713 18.3866C3.90198 18.3549 3.83385 18.3089 3.77656 18.2512L3.77592 18.2506C3.71791 18.1928 3.67147 18.1247 3.63902 18.0499C3.60577 17.973 3.58904 17.8902 3.58989 17.8066L3.58989 17.8066V17.805V14.0697V13.9197H3.43989H3.00005H2.85005V14.0697V17.8048ZM2.85005 17.8048C2.85005 17.8046 2.85005 17.8045 2.85005 17.8043L3.00005 17.8054M2.85005 17.8048V17.8054H3.00005M3.00005 17.8054C2.99883 17.9652 3.03076 18.1236 3.09385 18.2706L3.00005 17.8054ZM8.34427 14.0697C8.5025 14.0688 8.65935 14.0991 8.80571 14.1589C8.95208 14.2188 9.08506 14.3069 9.19696 14.4182L9.69869 15.2673L9.69869 15.2672L9.54869 15.2667M8.34427 14.0697V13.9197H8.34385H6.79806H6.64806V14.0697V18.9314V19.0814H6.79806H7.23755H7.38755V18.9314V17.2137H8.34366H8.34391V17.0637M8.34427 14.0697H6.94806H8.34427ZM8.34391 17.0637C8.5805 17.0647 8.81209 16.996 9.00953 16.8663C9.20697 16.7365 9.36143 16.5516 9.45347 16.3347L9.59145 16.3936C9.66215 16.2278 9.69805 16.0493 9.69691 15.8692M8.34391 17.0637H7.38755H8.34391ZM9.69691 15.8692L9.69691 15.8699L9.54691 15.8695L9.69691 15.8685C9.69691 15.8687 9.69691 15.869 9.69691 15.8692ZM9.69691 15.8692L9.69869 15.2675L9.54869 15.2667M9.54869 15.2667C9.54953 15.1065 9.51774 14.9477 9.45525 14.8001L9.54869 15.2667ZM9.10742 15.2685V15.8521L8.96074 15.8381L8.96038 15.8398L9.10742 15.2685ZM9.10742 15.2685C9.10813 15.164 9.08721 15.0605 9.04596 14.9644L9.10742 15.2685ZM13.7496 14.892C13.7083 14.9881 13.6875 15.0918 13.6885 15.1964V17.8054L15.361 18.0502C15.3285 18.1252 15.2823 18.1935 15.2247 18.2518C15.1677 18.3092 15.1 18.3552 15.0254 18.3873C14.9479 18.4203 14.8642 18.437 14.7798 18.4363H14.7785L14.473 18.4363L14.472 18.4363C14.3875 18.4369 14.3038 18.4202 14.2261 18.3871L14.1674 18.5252M13.7496 14.892L13.8874 14.9513C13.8874 14.9513 13.8874 14.9512 13.8874 14.9512M13.7496 14.892C13.7895 14.7994 13.8469 14.7154 13.9187 14.6445M13.7496 14.892L13.9187 14.6445M13.8874 14.9512C13.8543 15.0282 13.8377 15.1112 13.8385 15.1949L13.8385 15.1964L13.8385 17.8054V17.8068C13.8377 17.8904 13.8543 17.9732 13.8872 18.0501C13.9199 18.125 13.9665 18.1932 14.0246 18.251L14.0247 18.2511C14.0825 18.3089 14.1509 18.3551 14.2263 18.3872L14.1674 18.5252M13.8874 14.9512C13.9196 14.8765 13.966 14.8086 14.0241 14.7512L13.9187 14.6445M13.8874 14.9512L13.9187 14.6445M14.1674 18.5252C14.264 18.5662 14.368 18.587 14.473 18.5863H14.7785C14.8836 18.5872 14.9878 18.5664 15.0844 18.5252L13.7496 18.1098C13.7899 18.2021 13.8472 18.2861 13.9187 18.3573C13.9901 18.4285 14.0745 18.4855 14.1674 18.5252ZM13.9187 14.6445L14.0239 14.7515C14.0822 14.6941 14.1508 14.6481 14.2263 14.616L14.2263 14.6159C14.3038 14.5829 14.3874 14.5661 14.4717 14.5668H14.473L14.7785 14.5668L14.78 14.5668C14.8643 14.566 14.9479 14.5827 15.0253 14.6159L15.0254 14.6159C15.1763 14.6804 15.2963 14.7999 15.361 14.9497L15.361 14.9498C15.3943 15.0266 15.411 15.1095 15.4101 15.1931H15.4101V15.1946V15.4583V15.6335L15.5832 15.6065L16.0216 15.5383L16.1486 15.5186V15.3901V15.1952V15.1946H15.9986M13.9187 14.6445L15.6482 14.35M13.9187 14.6445C13.9904 14.574 14.0748 14.5175 14.1674 14.478C14.2639 14.4368 14.368 14.416 14.473 14.4168L13.9187 14.6445ZM15.9986 15.1946C15.9998 15.0347 15.9678 14.8764 15.9048 14.7294M15.9986 15.1946V15.3901V15.1946ZM15.9048 14.7294L16.0428 14.6706C16.0427 14.6705 16.0427 14.6704 16.0427 14.6704C15.9748 14.5111 15.8769 14.3663 15.7542 14.2439L15.6482 14.35M15.9048 14.7294C15.8444 14.5877 15.7574 14.459 15.6482 14.35M15.9048 14.7294L15.3255 13.9552M15.6482 14.35L15.7544 14.2441C15.6316 14.121 15.4859 14.0229 15.3255 13.9552M15.3255 13.9552C15.159 13.8848 14.9799 13.849 14.799 13.85M15.3255 13.9552L13.2476 17.8036M14.799 13.85H14.7995V14L14.7985 13.85C14.7987 13.85 14.7989 13.85 14.799 13.85ZM14.799 13.85H14.4524M14.4524 13.85H14.452V14L14.4528 13.85C14.4527 13.85 14.4525 13.85 14.4524 13.85ZM14.4524 13.85C14.2744 13.8491 14.098 13.8834 13.9333 13.951C13.7686 14.0186 13.619 14.1181 13.4933 14.2439C13.4933 14.2439 13.4932 14.2439 13.4932 14.244L13.5993 14.35C13.49 14.4592 13.4023 14.5879 13.341 14.7294C13.2782 14.8764 13.2464 15.0348 13.2476 15.1946M13.2476 15.1946H13.0976V15.1952V17.803V17.8036H13.2476M13.2476 15.1946V17.8036M13.2476 15.1946V17.8036M15.7557 18.7558L15.7554 18.756C15.632 18.8787 15.4859 18.9762 15.3251 19.0432C15.1587 19.1135 14.9797 19.1493 14.799 19.1482M15.7557 18.7558L14.7995 18.9982M15.7557 18.7558C15.8783 18.6333 15.9762 18.4885 16.0441 18.3292L15.7557 18.7558ZM14.799 19.1482C14.7988 19.1482 14.7987 19.1482 14.7985 19.1482L14.7995 18.9982M14.799 19.1482H14.7995V18.9982M14.799 19.1482H14.4524M14.7995 18.9982H14.452M14.4524 19.1482C14.4525 19.1482 14.4527 19.1482 14.4528 19.1482L14.452 18.9982M14.4524 19.1482H14.452V18.9982M14.4524 19.1482C14.2744 19.1491 14.0979 19.1148 13.9333 19.0473C13.7686 18.9796 13.619 18.8801 13.4932 18.7543M14.452 18.9982L13.4932 18.7543M13.4932 18.7543L13.5993 18.6482L13.4933 18.7544C13.4933 18.7543 13.4933 18.7543 13.4932 18.7543ZM15.4101 17.8069L15.4101 17.8054L15.4101 17.5417V17.3655L15.584 17.3936L16.0224 17.4643L16.1476 17.4845L16.1486 17.6113L16.15 17.8039V17.8039L16 17.805L15.4101 17.8069ZM15.4101 17.8069C15.411 17.8905 15.3943 17.9733 15.361 18.0502L15.4101 17.8069ZM4.55052 19.15V19H4.20305V19.15H4.20324C4.20331 19.15 4.20337 19.15 4.20343 19.15L4.54999 19.15H4.55052ZM8.95742 15.8695L8.95779 15.8695C8.95842 15.9529 8.94167 16.0356 8.90858 16.1123L8.90849 16.1125C8.87643 16.1872 8.83021 16.255 8.77232 16.3123C8.71397 16.3695 8.6455 16.4154 8.57034 16.448C8.49251 16.4802 8.4089 16.4965 8.32454 16.4958V16.4958H8.32331H7.38755V14.6379L8.32295 14.6379L8.32426 14.6379C8.40858 14.6371 8.49211 14.6539 8.56953 14.687L8.6285 14.5491L8.56937 14.6869C8.7216 14.7522 8.84277 14.8729 8.90826 15.0239C8.94127 15.1009 8.95799 15.1838 8.95742 15.2675V15.2685V15.8695ZM8.87755 16.4192C8.94927 16.3483 9.00657 16.2643 9.04631 16.1717L8.62885 16.5861C8.72139 16.5462 8.80571 16.4896 8.87755 16.4192ZM12.6248 19.0814H12.7746L12.7748 18.9315L12.7751 18.5161L12.7752 18.366H12.6251H10.9049V14.0697V13.9197H10.7549H10.3154H10.1654V14.0697V18.9314V19.0814H10.3154H12.6248Z" fill="#808080" stroke="#808080" stroke-width="0.3"/>
<path d="M11.9 13.9356C11.9 14.0506 11.9932 14.1437 12.1081 14.1437C12.223 14.1437 12.3162 14.0506 12.3162 13.9356V13.143C12.3162 12.7008 12.6747 12.3423 13.1169 12.3423H18.7838C19.2808 12.3423 19.6838 12.7453 19.6838 13.2423V19.7577C19.6838 20.2547 19.2808 20.6577 18.7838 20.6577H12.7078C12.4916 20.6577 12.3162 20.4824 12.3162 20.2661V19.8825C12.3162 19.7676 12.223 19.6744 12.1081 19.6744C11.9932 19.6744 11.9 19.7676 11.9 19.8825V20.3872C11.9 20.7809 12.2191 21.1 12.6128 21.1H19C19.6075 21.1 20.1 20.6075 20.1 20V13C20.1 12.3925 19.6075 11.9 19 11.9H13C12.3925 11.9 11.9 12.3925 11.9 13V13.9356Z" fill="#808080" stroke="#808080" stroke-width="0.2"/>
</g>
<rect x="0.5" y="0.5" width="23" height="23" rx="1.5" stroke="#808080"/>
<defs>
<clipPath id="clip0_51_6987">
<rect width="24" height="24" rx="2" fill="white"/>
</clipPath>
</defs>
</svg>
